<svg height="480pt" viewBox="0 0 480 480" width="480pt" xmlns="http://www.w3.org/2000/svg"><path d="m472 472h-464v-400h464zm0 0" fill="#fef1d8"/><path d="m8 8h464v64h-464zm0 0" fill="#abb1ba"/><g fill="#fff"><path d="m112 40c0 4.417969-3.582031 8-8 8s-8-3.582031-8-8 3.582031-8 8-8 8 3.582031 8 8zm0 0"/><path d="m80 40c0 4.417969-3.582031 8-8 8s-8-3.582031-8-8 3.582031-8 8-8 8 3.582031 8 8zm0 0"/><path d="m48 40c0 4.417969-3.582031 8-8 8s-8-3.582031-8-8 3.582031-8 8-8 8 3.582031 8 8zm0 0"/><path d="m440 48h-16c-4.417969 0-8-3.582031-8-8s3.582031-8 8-8h16c4.417969 0 8 3.582031 8 8s-3.582031 8-8 8zm0 0"/></g><path d="m319.113281 392-79.113281-43.726562-79.113281 43.726562 15.113281-92.625-64-65.589844 88.449219-13.511718 39.550781-84.273438 39.550781 84.273438 88.449219 13.511718-64 65.589844zm0 0" fill="#f7cc38"/><path d="m472 0h-464c-4.417969 0-8 3.582031-8 8v464c0 4.417969 3.582031 8 8 8h464c4.417969 0 8-3.582031 8-8v-464c0-4.417969-3.582031-8-8-8zm-456 16h448v48h-448zm448 448h-448v-384h448zm0 0"/><path d="m112 40c0 4.417969-3.582031 8-8 8s-8-3.582031-8-8 3.582031-8 8-8 8 3.582031 8 8zm0 0"/><path d="m80 40c0 4.417969-3.582031 8-8 8s-8-3.582031-8-8 3.582031-8 8-8 8 3.582031 8 8zm0 0"/><path d="m48 40c0 4.417969-3.582031 8-8 8s-8-3.582031-8-8 3.582031-8 8-8 8 3.582031 8 8zm0 0"/><path d="m440 32h-16c-4.417969 0-8 3.582031-8 8s3.582031 8 8 8h16c4.417969 0 8-3.582031 8-8s-3.582031-8-8-8zm0 0"/><path d="m167.457031 302.070312-14.464843 88.640626c-.503907 3.035156.777343 6.09375 3.296874 7.859374 2.515626 1.769532 5.828126 1.9375 8.511719.429688l75.199219-41.585938 75.238281 41.601563c2.683594 1.484375 5.976563 1.304687 8.480469-.460937 2.503906-1.761719 3.78125-4.800782 3.289062-7.828126l-14.464843-88.636718 61.183593-62.707032c2.097657-2.144531 2.8125-5.28125 1.863282-8.125-.953125-2.84375-3.417969-4.917968-6.382813-5.371093l-84.222656-12.878907-37.746094-80.40625c-1.316406-2.808593-4.136719-4.597656-7.238281-4.597656s-5.921875 1.789063-7.238281 4.597656l-37.746094 80.40625-84.222656 12.863282c-2.964844.453125-5.429688 2.523437-6.382813 5.367187-.949218 2.84375-.234375 5.984375 1.863282 8.128907zm34.199219-73.894531c2.636719-.402343 4.898438-2.089843 6.03125-4.503906l32.3125-68.839844 32.3125 68.839844c1.132812 2.414063 3.394531 4.101563 6.03125 4.503906l73.054688 11.199219-53.125 54.457031c-1.773438 1.816407-2.578126 4.367188-2.167969 6.871094l12.453125 76.367187-64.695313-35.757812c-2.40625-1.328125-5.320312-1.328125-7.726562 0l-64.695313 35.757812 12.453125-76.367187c.410157-2.503906-.394531-5.054687-2.167969-6.871094l-53.125-54.457031zm0 0"/></svg>