<?xml version="1.0"?>
<svg xmlns="http://www.w3.org/2000/svg" height="512px" viewBox="0 0 464 464" width="512px"><path d="m384 448h-16v16h32v-32h48v16h-16v16h32v-80h-80zm16-48h48v16h-48zm0 0" fill="#5387f2"/><path d="m32 16.257812c13.496094 1.421876 25.710938 8.734376 33.34375 20.175782l13.3125-8.875c-11.503906-17.253906-30.761719-27.558594-51.496094-27.558594h-11.160156v64h-16v16h32zm0 0" fill="#5387f2"/><path d="m73.945312 369.375-11.3125-11.3125-14.632812 14.625v-20.6875h-16v20.6875l-14.632812-14.625-11.3125 11.3125 14.632812 14.625h-20.6875v16h20.6875l-14.632812 14.625 11.3125 11.3125 14.632812-14.625v20.6875h16v-20.6875l14.632812 14.625 11.3125-11.3125-14.632812-14.625h20.6875v-16h-20.6875zm-17.945312 29.25-9.375 9.375h-13.25l-9.375-9.375v-13.25l9.375-9.375h13.25l9.375 9.375zm0 0" fill="#5387f2"/><path d="m443.3125 32 14.632812-14.625-11.3125-11.3125-14.632812 14.625v-20.6875h-16v20.6875l-14.632812-14.625-11.3125 11.3125 14.632812 14.625h-20.6875v16h20.6875l-14.632812 14.625 11.3125 11.3125 14.632812-14.625v20.6875h16v-20.6875l14.632812 14.625 11.3125-11.3125-14.632812-14.625h20.6875v-16zm-3.3125 14.625-9.375 9.375h-13.25l-9.375-9.375v-13.25l9.375-9.375h13.25l9.375 9.375zm0 0" fill="#5387f2"/><path d="m152.121094 213.617188c-.65625 6.878906 1.511718 13.460937 6.117187 18.519531 2.769531 3.039062 6.289063 5.167969 10.105469 6.464843-.222656-2.167968-.34375-4.371093-.34375-6.601562v-38.28125c-8.609375 3.265625-15.015625 10.839844-15.878906 19.898438zm0 0" fill="#5387f2"/><path d="m208 291.289062v11.222657c1.671875 3.984375 8.503906 17.488281 24 17.488281s22.328125-13.503906 24-17.488281v-11.222657c-7.414062 3.015626-15.511719 4.710938-24 4.710938s-16.585938-1.695312-24-4.710938zm0 0" fill="#5387f2"/><path d="m296 232c0 2.230469-.121094 4.433594-.34375 6.609375 3.824219-1.296875 7.34375-3.433594 10.105469-6.464844 4.597656-5.066406 6.773437-11.640625 6.117187-18.519531-.863281-9.058594-7.269531-16.632812-15.878906-19.898438zm0 0" fill="#5387f2"/><path d="m286.625 176c9.503906 0 18.296875 3.320312 25.375 8.679688v-16.679688c0-44.113281-35.886719-80-80-80s-80 35.886719-80 80v16.679688c7.078125-5.359376 15.871094-8.679688 25.375-8.679688zm0 0" fill="#5387f2"/><path d="m280 232v-40h-96v40c0 26.472656 21.527344 48 48 48s48-21.527344 48-48zm0 0" fill="#5387f2"/><path d="m422.039062 294.640625c11.585938-11.578125 17.960938-26.96875 17.960938-43.351563 0-1.9375-.097656-3.882812-.28125-5.824218l-13.519531-141.953125c-.839844-8.839844-8.175781-15.511719-17.054688-15.511719-9.457031 0-17.144531 7.6875-17.144531 17.144531v154.496094l-21.894531 19.160156 33.894531 33.894531zm0 0" fill="#5387f2"/><path d="m358.039062 289.351562-35.535156 31.089844-53.734375-7.671875c-4.65625 8.65625-15.609375 23.230469-36.769531 23.230469s-32.113281-14.574219-36.769531-23.238281l-53.734375 7.671875-35.535156-31.089844-34.648438 34.65625 72.6875 72.6875v35.3125h176v-35.3125l72.6875-72.6875zm0 0" fill="#5387f2"/><path d="m54.855469 88c-8.878907 0-16.214844 6.671875-17.0625 15.511719l-13.519531 141.960937c-.175782 1.933594-.273438 3.878906-.273438 5.816406 0 16.382813 6.375 31.773438 17.960938 43.351563l18.046874 18.046875 33.894532-33.894531-21.902344-19.160157v-154.488281c0-9.457031-7.6875-17.144531-17.144531-17.144531zm0 0" fill="#5387f2"/><path d="m144 448v16h176v-16zm0 0" fill="#5387f2"/></svg>
